<svg height="480pt" viewBox="0 -85 480 480" width="480pt" xmlns="http://www.w3.org/2000/svg"><path d="m464 294.839844h16v16h-16zm0 0"/><path d="m0 294.839844h16v16h-16zm0 0"/><path d="m224 218.152344c0 .871094.351562 1.726562.96875 2.34375l7.03125 7.03125c4.28125 4.265625 11.71875 4.265625 16 0l7.03125-7.03125c.617188-.617188.96875-1.464844.96875-2.34375 0-1.832032-1.488281-3.3125-3.3125-3.3125h-25.375c-1.824219 0-3.3125 1.488281-3.3125 3.3125zm0 0"/><path d="m203.3125 152.214844 1.375-1.375-1.375-1.375c-3.785156-3.785156-8.082031-6.847656-12.710938-9.207032.847657 3.316407 1.398438 6.839844 1.398438 10.582032 0 3.746094-.550781 7.265625-1.398438 10.574218 4.628907-2.351562 8.925782-5.414062 12.710938-9.199218zm0 0"/><path d="m176 150.839844c0-8.835938-3.582031-16-8-16s-8 7.164062-8 16c0 8.835937 3.582031 16 8 16s8-7.164063 8-16zm0 0"/><path d="m289.398438 161.425781c-.847657-3.320312-1.398438-6.832031-1.398438-10.585937 0-3.742188.550781-7.265625 1.398438-10.574219-4.628907 2.359375-8.933594 5.421875-12.710938 9.207031l-1.375 1.375 1.375 1.375c3.785156 3.777344 8.082031 6.839844 12.710938 9.203125zm0 0"/><path d="m399.6875 184.632812c16.9375-5.59375 36.234375-9.792968 56.3125-9.792968v-16c-20.230469 0-39.566406 3.777344-56.734375 9.039062-1.019531-8.3125-3.128906-16.421875-6.464844-24.207031l-16.800781-39.191406v-104.480469c-26.832031 7.519531-55.464844 49.558594-65.007812 66.726562l-4.214844 7.570313-7.210938-4.808594c-.199218-.136719-22.75-14.65625-59.558594-14.65625-37.152343 0-59.34375 14.503907-59.558593 14.65625l-7.210938 4.808594-4.214843-7.570313c-9.542969-17.167968-38.167969-59.199218-65.007813-66.726562v104.480469l-16.800781 39.183593c-3.039063 7.105469-5.015625 14.488282-6.136719 22.03125-15.183594-4.078124-31.78125-6.855468-49.070313-6.855468v16c16.921876 0 33.289063 3.023437 48.183594 7.320312.601563 15.625 5.25 30.648438 13.375 43.695313-19.191406 3.542969-41.574218 10.046875-65.132812 21.824219l7.160156 14.3125c25.414062-12.703126 49.574219-18.816407 69.199219-21.671876 1.816406 1.894532 3.65625 3.769532 5.648437 5.503907l12.773438 11.175781c11.191406 9.792969 18.273437 23.28125 20.210937 37.832031h-111.425781v16h416v-16h-111.40625c1.925781-14.550781 9.015625-28.03125 20.207031-37.824219l12.773438-11.183593c2.320312-2.03125 4.515625-4.183594 6.59375-6.425781 20.71875 2.34375 47.695312 8.304687 76.265625 22.585937l7.160156-14.3125c-26.585938-13.289063-51.664062-19.863281-72.335938-23.039063 7.230469-12.046874 11.484376-25.753906 12.429688-40zm-134.3125-46.480468c12.457031-12.457032 29.007812-19.3125 46.625-19.3125s34.167969 6.855468 46.625 19.3125l12.6875 12.6875-12.6875 12.6875c-12.457031 12.457031-29.007812 19.3125-46.625 19.3125s-34.167969-6.855469-46.625-19.3125l-12.6875-12.6875zm-12.6875 60.6875c10.648438 0 19.3125 8.664062 19.3125 19.3125 0 5.085937-2.0625 10.0625-5.65625 13.65625l-7.03125 7.03125c-3.199219 3.199218-7.105469 5.382812-11.3125 6.679687v5.320313c0 6.617187 5.382812 12 12 12s12-5.382813 12-12v-4h16v4c0 15.441406-12.558594 28-28 28-7.839844 0-14.910156-3.253906-20-8.464844-5.089844 5.210938-12.160156 8.464844-20 8.464844-15.441406 0-28-12.558594-28-28v-4h16v4c0 6.617187 5.382812 12 12 12s12-5.382813 12-12v-5.320313c-4.207031-1.289062-8.113281-3.480469-11.3125-6.679687l-7.03125-7.03125c-3.59375-3.59375-5.65625-8.570313-5.65625-13.65625 0-10.648438 8.664062-19.3125 19.3125-19.3125zm-131.3125-60.6875c12.457031-12.457032 29.007812-19.3125 46.625-19.3125s34.167969 6.855468 46.625 19.3125l12.6875 12.6875-12.6875 12.6875c-12.457031 12.457031-29.007812 19.3125-46.625 19.3125s-34.167969-6.855469-46.625-19.3125l-12.6875-12.6875zm0 0"/><path d="m145.398438 161.425781c-.847657-3.320312-1.398438-6.832031-1.398438-10.585937 0-3.742188.550781-7.265625 1.398438-10.574219-4.628907 2.359375-8.933594 5.421875-12.710938 9.207031l-1.375 1.375 1.375 1.375c3.785156 3.777344 8.082031 6.839844 12.710938 9.203125zm0 0"/><path d="m347.3125 152.214844 1.375-1.375-1.375-1.375c-3.785156-3.785156-8.082031-6.847656-12.710938-9.207032.847657 3.316407 1.398438 6.839844 1.398438 10.582032 0 3.746094-.550781 7.265625-1.398438 10.574218 4.628907-2.351562 8.925782-5.414062 12.710938-9.199218zm0 0"/><path d="m320 150.839844c0-8.835938-3.582031-16-8-16s-8 7.164062-8 16c0 8.835937 3.582031 16 8 16s8-7.164063 8-16zm0 0"/></svg>